<svg width="543" height="302" viewBox="0 0 543 302" fill="none" xmlns="http://www.w3.org/2000/svg">
<g clip-path="url(#clip0_26_601)">
<path d="M461.818 68.7518C480.033 68.7518 494.8 53.9507 494.8 35.6926C494.8 17.4345 480.033 2.63333 461.818 2.63333C443.603 2.63333 428.837 17.4345 428.837 35.6926C428.837 53.9507 443.603 68.7518 461.818 68.7518Z" fill="#ECBE36"/>
<path d="M413.162 242.181L375.965 239.804L373.959 72.1462C373.911 68.0769 375.529 64.092 378.4 61.2141L418.25 21.2698C423.829 15.6787 432.609 15.2747 438.674 20.3323L481.92 56.3922C485.448 59.3339 487.441 63.6593 487.387 68.259L485.901 194.346L504.697 220.514L504.737 220.569L507.921 248.236L413.162 242.181Z" fill="#F1F2F2"/>
<path d="M419.414 60.3073V52.533C419.414 50.4808 421.079 48.8113 423.127 48.8113H434.024C436.071 48.8113 437.737 50.4808 437.737 52.533V60.3073C437.737 62.3595 436.071 64.029 434.024 64.029H423.127C421.079 64.029 419.414 62.3595 419.414 60.3073Z" fill="#0066DB"/>
<path d="M396.379 120.654V91.8892C396.379 89.837 398.045 88.1675 400.092 88.1675H416.225C418.272 88.1675 419.937 89.837 419.937 91.8892V120.654C419.937 122.706 418.272 124.375 416.225 124.375H400.092C398.045 124.375 396.379 122.706 396.379 120.654Z" fill="#3F3D56"/>
<path d="M432.845 187.985C430.895 187.916 429.323 186.33 429.265 184.375L428.45 156.573C428.415 155.386 428.927 154.283 429.856 153.545C430.784 152.809 431.973 152.563 433.118 152.867L433.934 153.085C435.556 153.519 436.69 154.998 436.69 156.681V184.265C436.69 185.284 436.287 186.235 435.555 186.943C434.857 187.619 433.947 187.987 432.981 187.987C432.936 187.987 432.891 187.986 432.845 187.985Z" fill="#3F3D56"/>
<path d="M398.997 184.149V155.301C398.997 153.264 400.588 151.63 402.619 151.58L417.282 151.222C419.314 151.193 421.024 152.792 421.084 154.834L421.929 184.04C421.958 185.055 421.586 186.014 420.88 186.742C420.175 187.469 419.229 187.87 418.217 187.87H402.71C400.662 187.87 398.997 186.2 398.997 184.149Z" fill="#3F3D56"/>
<path d="M485.663 203.861L497.155 224.34L498.475 247.371L507.626 247.954L504.485 220.667L485.638 194.429C484.012 197.364 484.021 200.935 485.663 203.861Z" fill="#CCCCCC"/>
<path d="M498.107 240.78L460.808 241.291L460.815 241.815L498.114 241.304L498.107 240.78Z" fill="#3F3D56"/>
<path d="M495.844 236.148L460.479 236.425L460.483 236.95L495.849 236.673L495.844 236.148Z" fill="#3F3D56"/>
<path d="M494.009 231.416L460.18 232.078L460.19 232.603L494.019 231.941L494.009 231.416Z" fill="#3F3D56"/>
<path d="M492.959 226.709L460.472 227.791L460.489 228.315L492.976 227.234L492.959 226.709Z" fill="#3F3D56"/>
<path d="M491.388 222.519L460.175 223.619L460.194 224.143L491.407 223.043L491.388 222.519Z" fill="#3F3D56"/>
<path d="M489.303 218.83H458.902V219.355H489.303V218.83Z" fill="#3F3D56"/>
<path d="M487.729 215.148L458.184 215.495L458.19 216.02L487.735 215.673L487.729 215.148Z" fill="#3F3D56"/>
<path d="M486.153 211.478L457.524 212.431L457.542 212.955L486.17 212.003L486.153 211.478Z" fill="#3F3D56"/>
<path d="M485.11 207.824L456.84 208.322L456.849 208.847L485.119 208.349L485.11 207.824Z" fill="#3F3D56"/>
<path d="M483.012 204.19L455.943 205.037L455.96 205.562L483.028 204.714L483.012 204.19Z" fill="#3F3D56"/>
<path d="M481.971 200.989L455.141 201.251L455.146 201.776L481.976 201.514L481.971 200.989Z" fill="#3F3D56"/>
<path d="M453.18 190.183V154.597C453.18 152.545 454.846 150.875 456.893 150.875H474.073C476.12 150.875 477.785 152.545 477.785 154.597V190.183C477.785 192.235 476.12 193.905 474.073 193.905H456.893C454.846 193.905 453.18 192.235 453.18 190.183Z" fill="#0066DB"/>
<path d="M413.162 242.181L382.751 240.239L382.506 240.224V216.632C382.506 213.649 384.928 211.221 387.904 211.221H417.942C420.919 211.221 423.34 213.649 423.34 216.632V242.182H423.078L413.162 242.181Z" fill="#CCCCCC"/>
<path d="M455.274 125.639V98.4485C455.274 96.3964 456.94 94.7269 458.987 94.7269H464.65C466.697 94.7269 468.362 96.3964 468.362 98.4485V125.639C468.362 127.691 466.697 129.36 464.65 129.36H458.987C456.94 129.36 455.274 127.691 455.274 125.639Z" fill="#3F3D56"/>
<path d="M461.033 244.805L459.462 221.716L454.751 199.677L453.442 193.642C450.753 191.809 447.131 193.848 447.293 197.104L447.422 199.677L452.133 221.716L453.704 244.805" fill="#CCCCCC"/>
<path d="M282.807 233.785L245.611 231.408L243.605 63.7502C243.556 59.6809 245.175 55.696 248.046 52.8181L287.896 12.8738C293.474 7.28198 302.254 6.87893 308.32 11.9363L351.566 47.9962C355.094 50.9379 357.086 55.2633 357.032 59.863L355.546 185.95L374.342 212.118L374.382 212.173L377.567 239.84L282.807 233.785Z" fill="#F1F2F2"/>
<path d="M289.059 51.9113V44.1369C289.059 42.0848 290.725 40.4153 292.772 40.4153H303.67C305.717 40.4153 307.382 42.0848 307.382 44.1369V51.9113C307.382 53.9634 305.717 55.633 303.67 55.633H292.772C290.725 55.633 289.059 53.9634 289.059 51.9113Z" fill="#0066DB"/>
<path d="M266.025 112.258V83.4932C266.025 81.4411 267.69 79.7715 269.738 79.7715H285.87C287.917 79.7715 289.583 81.441 289.583 83.4932V112.258C289.583 114.31 287.917 115.979 285.87 115.979H269.738C267.69 115.979 266.025 114.31 266.025 112.258Z" fill="#3F3D56"/>
<path d="M253.024 178.547C252.293 177.839 251.89 176.888 251.89 175.869V148.285C251.89 146.602 253.023 145.123 254.646 144.689L255.462 144.471C256.605 144.167 257.795 144.413 258.724 145.149C259.653 145.887 260.165 146.99 260.13 148.177L259.314 175.979C259.257 177.934 257.685 179.52 255.734 179.589C255.689 179.59 255.644 179.591 255.599 179.591C254.633 179.591 253.723 179.223 253.024 178.547Z" fill="#3F3D56"/>
<path d="M268.642 175.753V146.905C268.642 144.868 270.233 143.234 272.265 143.184L286.927 142.826C286.959 142.825 286.989 142.824 287.019 142.824C289.016 142.824 290.671 144.427 290.73 146.438L291.574 175.644C291.603 176.659 291.231 177.618 290.526 178.346C289.821 179.073 288.875 179.474 287.862 179.474H272.355C270.308 179.474 268.642 177.804 268.642 175.753Z" fill="#3F3D56"/>
<path d="M355.309 195.465L366.801 215.944L368.12 238.975L377.271 239.558L374.13 212.271L355.284 186.033C353.657 188.968 353.666 192.539 355.309 195.465Z" fill="#CCCCCC"/>
<path d="M367.753 232.384L330.453 232.895L330.46 233.419L367.76 232.908L367.753 232.384Z" fill="#3F3D56"/>
<path d="M365.49 227.752L330.124 228.029L330.128 228.554L365.494 228.277L365.49 227.752Z" fill="#3F3D56"/>
<path d="M363.655 223.02L329.825 223.682L329.836 224.207L363.665 223.545L363.655 223.02Z" fill="#3F3D56"/>
<path d="M362.604 218.313L330.117 219.395L330.135 219.919L362.622 218.838L362.604 218.313Z" fill="#3F3D56"/>
<path d="M361.033 214.123L329.821 215.223L329.839 215.747L361.052 214.647L361.033 214.123Z" fill="#3F3D56"/>
<path d="M358.948 210.434H328.547V210.959H358.948V210.434Z" fill="#3F3D56"/>
<path d="M357.374 206.752L327.829 207.099L327.835 207.624L357.38 207.277L357.374 206.752Z" fill="#3F3D56"/>
<path d="M355.798 203.082L327.169 204.035L327.187 204.559L355.815 203.607L355.798 203.082Z" fill="#3F3D56"/>
<path d="M354.756 199.428L326.486 199.926L326.495 200.451L354.765 199.953L354.756 199.428Z" fill="#3F3D56"/>
<path d="M352.658 195.794L325.589 196.641L325.605 197.166L352.674 196.318L352.658 195.794Z" fill="#3F3D56"/>
<path d="M351.616 192.593L324.786 192.855L324.791 193.38L351.621 193.118L351.616 192.593Z" fill="#3F3D56"/>
<path d="M322.826 181.787V146.201C322.826 144.149 324.491 142.479 326.539 142.479H343.718C345.765 142.479 347.431 144.149 347.431 146.201V181.787C347.431 183.839 345.765 185.509 343.718 185.509H326.539C324.491 185.509 322.826 183.839 322.826 181.787Z" fill="#0066DB"/>
<path d="M282.807 233.785L252.396 231.843L252.152 231.828V208.236C252.152 205.253 254.573 202.825 257.55 202.825H287.588C290.564 202.825 292.986 205.253 292.986 208.236V233.786H292.724L282.807 233.785Z" fill="#CCCCCC"/>
<path d="M324.92 117.243V90.0525C324.92 88.0004 326.586 86.3309 328.633 86.3309H334.295C336.342 86.3309 338.008 88.0004 338.008 90.0525V117.243C338.008 119.295 336.342 120.964 334.295 120.964H328.633C326.586 120.964 324.92 119.295 324.92 117.243Z" fill="#3F3D56"/>
<path d="M330.679 236.409L329.108 213.32L324.396 191.281L323.088 185.246C320.398 183.413 316.776 185.452 316.939 188.708L317.067 191.281L321.779 213.32L323.349 236.409" fill="#CCCCCC"/>
<path d="M152.453 225.389L115.256 223.012L113.25 55.3542C113.202 51.2849 114.82 47.3001 117.691 44.4221L157.542 4.47785C163.12 -1.11376 171.9 -1.5168 177.965 3.54032L221.211 39.6002C224.739 42.5419 226.732 46.8673 226.677 51.467L225.192 177.554L243.988 203.722L244.027 203.777L247.213 231.444L152.453 225.389Z" fill="#F1F2F2"/>
<path d="M158.705 43.5153V35.7409C158.705 33.6888 160.37 32.0193 162.418 32.0193H173.315C175.362 32.0193 177.028 33.6888 177.028 35.7409V43.5153C177.028 45.5674 175.362 47.237 173.315 47.237H162.418C160.37 47.237 158.705 45.5675 158.705 43.5153Z" fill="#0066DB"/>
<path d="M135.67 103.862V75.0972C135.67 73.0451 137.336 71.3755 139.383 71.3755H155.516C157.563 71.3755 159.228 73.0451 159.228 75.0972V103.862C159.228 105.914 157.563 107.583 155.516 107.583H139.383C137.336 107.583 135.67 105.914 135.67 103.862Z" fill="#3F3D56"/>
<path d="M124.359 136.547L125.175 136.329C127.406 135.732 129.582 137.459 129.514 139.773L128.698 167.575C128.644 169.398 127.189 170.866 125.37 170.93C123.418 171 121.797 169.432 121.797 167.473V139.889C121.797 138.322 122.848 136.951 124.359 136.547Z" fill="#3F3D56"/>
<path d="M138.288 167.357V138.509C138.288 136.472 139.879 134.838 141.91 134.788L156.573 134.43C158.616 134.397 160.316 136 160.375 138.042L161.219 167.248C161.249 168.263 160.876 169.222 160.171 169.95C159.466 170.677 158.52 171.078 157.508 171.078H142.001C139.953 171.078 138.288 169.408 138.288 167.357Z" fill="#3F3D56"/>
<path d="M224.954 187.069L236.446 207.548L237.766 230.579L246.917 231.162L243.776 203.875L224.929 177.637C223.303 180.572 223.312 184.143 224.954 187.069Z" fill="#CCCCCC"/>
<path d="M237.398 223.988L200.099 224.499L200.106 225.023L237.405 224.512L237.398 223.988Z" fill="#3F3D56"/>
<path d="M235.136 219.356L199.77 219.633L199.774 220.158L235.14 219.881L235.136 219.356Z" fill="#3F3D56"/>
<path d="M233.3 214.624L199.471 215.286L199.481 215.811L233.31 215.149L233.3 214.624Z" fill="#3F3D56"/>
<path d="M232.25 209.917L199.763 210.999L199.78 211.523L232.267 210.442L232.25 209.917Z" fill="#3F3D56"/>
<path d="M230.679 205.727L199.466 206.827L199.484 207.351L230.697 206.251L230.679 205.727Z" fill="#3F3D56"/>
<path d="M228.594 202.038H198.193V202.563H228.594V202.038Z" fill="#3F3D56"/>
<path d="M227.02 198.356L197.475 198.703L197.481 199.228L227.026 198.881L227.02 198.356Z" fill="#3F3D56"/>
<path d="M225.444 194.686L196.815 195.639L196.832 196.163L225.461 195.211L225.444 194.686Z" fill="#3F3D56"/>
<path d="M224.401 191.032L196.131 191.53L196.14 192.055L224.41 191.557L224.401 191.032Z" fill="#3F3D56"/>
<path d="M222.303 187.398L195.234 188.245L195.25 188.77L222.319 187.922L222.303 187.398Z" fill="#3F3D56"/>
<path d="M221.262 184.197L194.432 184.459L194.437 184.984L221.267 184.722L221.262 184.197Z" fill="#3F3D56"/>
<path d="M192.471 173.391V137.805C192.471 135.753 194.137 134.083 196.184 134.083H213.364C215.411 134.083 217.076 135.753 217.076 137.805V173.391C217.076 175.443 215.411 177.113 213.364 177.113H196.184C194.137 177.113 192.471 175.443 192.471 173.391Z" fill="#0066DB"/>
<path d="M152.453 225.389L122.042 223.447L121.797 223.432V199.84C121.797 196.857 124.219 194.429 127.195 194.429H157.233C160.21 194.429 162.631 196.857 162.631 199.84V225.39H162.369L152.453 225.389Z" fill="#CCCCCC"/>
<path d="M194.565 108.847V81.6566C194.565 79.6044 196.231 77.9349 198.278 77.9349H203.94C205.987 77.9349 207.653 79.6044 207.653 81.6566V108.847C207.653 110.899 205.987 112.568 203.94 112.568H198.278C196.231 112.568 194.565 110.899 194.565 108.847Z" fill="#3F3D56"/>
<path d="M200.324 228.013L198.753 204.924L194.042 182.885L192.733 176.85C190.044 175.017 186.422 177.056 186.584 180.312L186.713 182.885L191.424 204.924L192.995 228.013" fill="#CCCCCC"/>
<path d="M66.6668 219.428L66.5994 220.475L542.932 251.309L543 250.262L66.6668 219.428Z" fill="#CCCCCC"/>
<path d="M346.563 292.872L309.366 290.495L307.36 122.837C307.311 118.768 308.93 114.783 311.801 111.905L351.651 71.9608C357.23 66.3697 366.01 65.9656 372.075 71.0233L415.321 107.083C418.849 110.025 420.842 114.35 420.788 118.95L419.302 245.037L438.098 271.205L438.138 271.26L441.322 298.927L346.563 292.872Z" fill="#E6E6E6"/>
<path d="M352.814 110.998V103.224C352.814 101.172 354.48 99.5022 356.527 99.5022H367.425C369.472 99.5022 371.137 101.172 371.137 103.224V110.998C371.137 113.05 369.472 114.72 367.425 114.72H356.527C354.48 114.72 352.814 113.05 352.814 110.998Z" fill="#0066DB"/>
<path d="M329.78 171.345V142.58C329.78 140.528 331.445 138.858 333.493 138.858H349.625C351.672 138.858 353.338 140.528 353.338 142.58V171.345C353.338 173.397 351.672 175.066 349.625 175.066H333.493C331.445 175.066 329.78 173.397 329.78 171.345Z" fill="#3F3D56"/>
<path d="M366.246 238.676C364.296 238.607 362.724 237.02 362.666 235.065L361.85 207.263C361.816 206.077 362.328 204.974 363.256 204.236C364.185 203.5 365.374 203.254 366.518 203.558L367.334 203.776C368.957 204.21 370.09 205.689 370.09 207.372V234.956C370.09 235.975 369.687 236.926 368.956 237.634C368.257 238.31 367.347 238.678 366.381 238.678C366.336 238.678 366.291 238.677 366.246 238.676Z" fill="#3F3D56"/>
<path d="M332.397 234.839V205.992C332.397 203.955 333.989 202.321 336.02 202.271L350.683 201.912C352.715 201.884 354.425 203.483 354.485 205.525L355.329 234.731C355.358 235.746 354.986 236.705 354.281 237.433C353.576 238.16 352.63 238.561 351.618 238.561H336.11C334.063 238.561 332.397 236.891 332.397 234.839Z" fill="#3F3D56"/>
<path d="M419.064 254.552L430.556 275.031L431.875 298.062L441.026 298.645L437.885 271.358L419.039 245.12C417.412 248.055 417.422 251.626 419.064 254.552Z" fill="#CCCCCC"/>
<path d="M431.508 291.471L394.208 291.982L394.215 292.506L431.515 291.995L431.508 291.471Z" fill="#3F3D56"/>
<path d="M429.245 286.839L393.879 287.116L393.883 287.641L429.249 287.364L429.245 286.839Z" fill="#3F3D56"/>
<path d="M427.41 282.107L393.581 282.769L393.591 283.294L427.42 282.631L427.41 282.107Z" fill="#3F3D56"/>
<path d="M426.359 277.4L393.873 278.482L393.89 279.006L426.377 277.925L426.359 277.4Z" fill="#3F3D56"/>
<path d="M424.789 273.21L393.576 274.31L393.594 274.834L424.807 273.734L424.789 273.21Z" fill="#3F3D56"/>
<path d="M422.703 269.521H392.302V270.046H422.703V269.521Z" fill="#3F3D56"/>
<path d="M421.13 265.839L391.585 266.186L391.591 266.711L421.136 266.364L421.13 265.839Z" fill="#3F3D56"/>
<path d="M419.553 262.169L390.925 263.122L390.942 263.646L419.571 262.694L419.553 262.169Z" fill="#3F3D56"/>
<path d="M418.511 258.515L390.241 259.013L390.25 259.538L418.52 259.04L418.511 258.515Z" fill="#3F3D56"/>
<path d="M416.413 254.88L389.344 255.728L389.36 256.253L416.429 255.405L416.413 254.88Z" fill="#3F3D56"/>
<path d="M415.372 251.68L388.542 251.942L388.547 252.467L415.377 252.205L415.372 251.68Z" fill="#3F3D56"/>
<path d="M386.581 240.874V205.288C386.581 203.236 388.247 201.566 390.294 201.566H407.473C409.521 201.566 411.186 203.236 411.186 205.288V240.874C411.186 242.926 409.521 244.596 407.473 244.596H390.294C388.247 244.596 386.581 242.926 386.581 240.874Z" fill="#0066DB"/>
<path d="M346.563 292.872L316.152 290.93L315.907 290.914V267.323C315.907 264.34 318.328 261.912 321.305 261.912H351.343C354.319 261.912 356.741 264.34 356.741 267.323V292.873H356.479L346.563 292.872Z" fill="#CCCCCC"/>
<path d="M388.675 176.33V149.14C388.675 147.087 390.34 145.418 392.388 145.418H398.05C400.097 145.418 401.763 147.087 401.763 149.14V176.33C401.763 178.382 400.097 180.051 398.05 180.051H392.388C390.34 180.051 388.675 178.382 388.675 176.33Z" fill="#3F3D56"/>
<path d="M394.434 295.496L392.863 272.407L388.151 250.368L386.843 244.333C384.153 242.5 380.532 244.539 380.694 247.795L380.822 250.368L385.534 272.407L387.104 295.496" fill="#CCCCCC"/>
<path d="M216.208 284.476L179.011 282.099L177.005 114.441C176.957 110.372 178.575 106.387 181.446 103.509L221.297 63.5648C226.875 57.9729 235.655 57.5699 241.72 62.6273L284.966 98.6872C288.494 101.629 290.487 105.954 290.433 110.554L288.947 236.641L307.743 262.809L307.783 262.864L310.968 290.531L216.208 284.476Z" fill="#E6E6E6"/>
<path d="M222.46 102.602V94.8279C222.46 92.7758 224.126 91.1062 226.173 91.1062H237.07C239.118 91.1062 240.783 92.7758 240.783 94.8279V102.602C240.783 104.654 239.118 106.324 237.07 106.324H226.173C224.126 106.324 222.46 104.654 222.46 102.602Z" fill="#0066DB"/>
<path d="M199.425 162.949V134.184C199.425 132.132 201.091 130.462 203.138 130.462H219.271C221.318 130.462 222.983 132.132 222.983 134.184V162.949C222.983 165.001 221.318 166.67 219.271 166.67H203.138C201.091 166.67 199.425 165.001 199.425 162.949Z" fill="#3F3D56"/>
<path d="M186.424 229.238C185.693 228.53 185.291 227.579 185.291 226.56V198.976C185.291 197.293 186.424 195.814 188.047 195.38L188.863 195.162C190.006 194.858 191.196 195.104 192.124 195.84C193.053 196.578 193.566 197.681 193.531 198.867L192.715 226.669C192.658 228.624 191.085 230.21 189.135 230.28C189.09 230.281 189.045 230.282 189 230.282C188.034 230.282 187.124 229.914 186.424 229.238Z" fill="#3F3D56"/>
<path d="M202.043 226.443V197.596C202.043 195.559 203.634 193.925 205.666 193.875L220.328 193.516C220.359 193.516 220.389 193.515 220.42 193.515C222.416 193.515 224.072 195.118 224.13 197.129L224.975 226.335C225.004 227.35 224.632 228.309 223.926 229.036C223.221 229.764 222.275 230.165 221.263 230.165H205.756C203.709 230.165 202.043 228.495 202.043 226.443Z" fill="#3F3D56"/>
<path d="M288.709 246.156L300.202 266.635L301.521 289.666L310.672 290.249L307.531 262.962L288.684 236.724C287.058 239.659 287.067 243.23 288.709 246.156Z" fill="#CCCCCC"/>
<path d="M301.153 283.075L263.854 283.586L263.861 284.11L301.16 283.599L301.153 283.075Z" fill="#3F3D56"/>
<path d="M298.891 278.443L263.525 278.72L263.529 279.245L298.895 278.968L298.891 278.443Z" fill="#3F3D56"/>
<path d="M297.055 273.711L263.226 274.373L263.236 274.898L297.065 274.236L297.055 273.711Z" fill="#3F3D56"/>
<path d="M296.005 269.004L263.518 270.086L263.535 270.61L296.022 269.529L296.005 269.004Z" fill="#3F3D56"/>
<path d="M294.434 264.814L263.221 265.914L263.24 266.438L294.453 265.338L294.434 264.814Z" fill="#3F3D56"/>
<path d="M292.349 261.125H261.948V261.65H292.349V261.125Z" fill="#3F3D56"/>
<path d="M290.775 257.443L261.23 257.79L261.236 258.315L290.781 257.968L290.775 257.443Z" fill="#3F3D56"/>
<path d="M289.199 253.773L260.57 254.726L260.587 255.25L289.216 254.298L289.199 253.773Z" fill="#3F3D56"/>
<path d="M288.156 250.119L259.886 250.617L259.895 251.142L288.166 250.644L288.156 250.119Z" fill="#3F3D56"/>
<path d="M286.058 246.484L258.99 247.332L259.006 247.857L286.075 247.009L286.058 246.484Z" fill="#3F3D56"/>
<path d="M285.017 243.284L258.187 243.546L258.192 244.071L285.022 243.809L285.017 243.284Z" fill="#3F3D56"/>
<path d="M256.227 232.478V196.892C256.227 194.84 257.892 193.17 259.939 193.17H277.119C279.166 193.17 280.832 194.84 280.832 196.892V232.478C280.832 234.53 279.166 236.2 277.119 236.2H259.939C257.892 236.2 256.227 234.53 256.227 232.478Z" fill="#0066DB"/>
<path d="M216.208 284.476L185.797 282.534L185.552 282.518V258.927C185.552 255.944 187.974 253.516 190.95 253.516H220.989C223.965 253.516 226.386 255.944 226.386 258.927V284.477H226.124L216.208 284.476Z" fill="#CCCCCC"/>
<path d="M258.321 167.934V140.743C258.321 138.691 259.986 137.022 262.033 137.022H267.696C269.743 137.022 271.408 138.691 271.408 140.743V167.934C271.408 169.986 269.743 171.655 267.696 171.655H262.033C259.986 171.655 258.321 169.986 258.321 167.934Z" fill="#3F3D56"/>
<path d="M264.079 287.1L262.509 264.011L257.797 241.972L256.488 235.937C253.799 234.104 250.177 236.143 250.34 239.399L250.468 241.972L255.179 264.011L256.75 287.1" fill="#CCCCCC"/>
<path d="M85.8533 276.08L48.6568 273.703L46.6507 106.045C46.6022 101.976 48.2207 97.991 51.0919 95.1131L90.9422 55.1688C96.5204 49.5772 105.301 49.1741 111.365 54.2313L154.612 90.2912C158.14 93.2329 160.132 97.5582 160.078 102.158L158.592 228.245L177.389 254.413L177.428 254.468L180.613 282.135L85.8533 276.08Z" fill="#E6E6E6"/>
<path d="M92.1052 94.2063V86.4319C92.1052 84.3798 93.7708 82.7102 95.8184 82.7102H106.716C108.763 82.7102 110.428 84.3798 110.428 86.4319V94.2063C110.428 96.2584 108.763 97.928 106.716 97.928H95.8184C93.7708 97.928 92.1052 96.2584 92.1052 94.2063Z" fill="#0066DB"/>
<path d="M69.0708 154.553V125.788C69.0708 123.736 70.7364 122.066 72.7839 122.066H88.9162C90.9632 122.066 92.6289 123.736 92.6289 125.788V154.553C92.6289 156.605 90.9632 158.274 88.9162 158.274H72.7839C70.7364 158.274 69.0708 156.605 69.0708 154.553Z" fill="#3F3D56"/>
<path d="M57.7597 187.238L58.5754 187.02C60.8071 186.423 62.9822 188.15 62.9143 190.464L62.0985 218.266C62.045 220.089 60.5892 221.557 58.7711 221.621C56.8184 221.691 55.1978 220.123 55.1978 218.164V190.58C55.1978 189.013 56.2489 187.642 57.7597 187.238Z" fill="#3F3D56"/>
<path d="M71.6882 218.048V189.2C71.6882 187.163 73.2792 185.529 75.3109 185.479L89.9733 185.12C92.0162 185.088 93.7161 186.691 93.7754 188.733L94.62 217.939C94.6492 218.954 94.277 219.913 93.5715 220.641C92.8665 221.368 91.9207 221.769 90.9084 221.769H75.4014C73.3539 221.769 71.6882 220.099 71.6882 218.048Z" fill="#3F3D56"/>
<path d="M158.355 237.76L169.847 258.239L171.166 281.27L180.317 281.853L177.176 254.566L158.33 228.328C156.703 231.263 156.713 234.834 158.355 237.76Z" fill="#CCCCCC"/>
<path d="M170.799 274.679L133.499 275.19L133.506 275.714L170.806 275.203L170.799 274.679Z" fill="#3F3D56"/>
<path d="M168.536 270.047L133.17 270.324L133.175 270.849L168.54 270.572L168.536 270.047Z" fill="#3F3D56"/>
<path d="M166.701 265.315L132.872 265.977L132.882 266.502L166.711 265.84L166.701 265.315Z" fill="#3F3D56"/>
<path d="M165.65 260.608L133.164 261.69L133.181 262.214L165.668 261.133L165.65 260.608Z" fill="#3F3D56"/>
<path d="M164.08 256.418L132.867 257.518L132.885 258.042L164.098 256.942L164.08 256.418Z" fill="#3F3D56"/>
<path d="M161.994 252.729H131.593V253.254H161.994V252.729Z" fill="#3F3D56"/>
<path d="M160.42 249.047L130.875 249.394L130.882 249.919L160.427 249.572L160.42 249.047Z" fill="#3F3D56"/>
<path d="M158.844 245.377L130.216 246.33L130.233 246.854L158.862 245.902L158.844 245.377Z" fill="#3F3D56"/>
<path d="M157.802 241.723L129.532 242.221L129.541 242.746L157.811 242.248L157.802 241.723Z" fill="#3F3D56"/>
<path d="M155.704 238.088L128.635 238.936L128.651 239.461L155.72 238.613L155.704 238.088Z" fill="#3F3D56"/>
<path d="M154.663 234.888L127.833 235.15L127.838 235.675L154.668 235.413L154.663 234.888Z" fill="#3F3D56"/>
<path d="M125.872 224.082V188.496C125.872 186.444 127.537 184.774 129.585 184.774H146.764C148.811 184.774 150.477 186.444 150.477 188.496V224.082C150.477 226.134 148.811 227.804 146.764 227.804H129.585C127.537 227.804 125.872 226.134 125.872 224.082Z" fill="#0066DB"/>
<path d="M85.8534 276.08L55.4426 274.138L55.1978 274.122V250.531C55.1978 247.548 57.6195 245.12 60.596 245.12H90.634C93.6105 245.12 96.0317 247.548 96.0317 250.531V276.081H95.77L85.8534 276.08Z" fill="#CCCCCC"/>
<path d="M127.966 159.538V132.348C127.966 130.295 129.631 128.626 131.679 128.626H137.341C139.388 128.626 141.054 130.295 141.054 132.348V159.538C141.054 161.59 139.388 163.259 137.341 163.259H131.679C129.631 163.259 127.966 161.59 127.966 159.538Z" fill="#3F3D56"/>
<path d="M133.725 278.704L132.154 255.615L127.443 233.576L126.134 227.541C123.444 225.708 119.823 227.747 119.985 231.003L120.113 233.576L124.825 255.615L126.395 278.704" fill="#CCCCCC"/>
<path d="M0.0674838 270.119L0 271.166L476.333 302L476.401 300.953L0.0674838 270.119Z" fill="#CCCCCC"/>
</g>
<defs>
<clipPath id="clip0_26_601">
<rect width="543" height="302" fill="white"/>
</clipPath>
</defs>
</svg>
