<svg width="305" height="305" viewBox="0 0 305 305" fill="none" xmlns="http://www.w3.org/2000/svg">
<g clip-path="url(#clip0_26_768)">
<path d="M155.228 199.098C182.569 199.098 204.733 176.934 204.733 149.593C204.733 122.252 182.569 100.088 155.228 100.088C127.888 100.088 105.724 122.252 105.724 149.593C105.724 176.934 127.888 199.098 155.228 199.098Z" fill="#FFCFD5"/>
<path d="M114.253 210.183L124.573 183.81L177.891 175.784L183.619 234.162L129.728 235.309L114.253 210.183Z" fill="#FFCFD5"/>
<path d="M205.213 158.727C204.57 161.301 203.271 167.429 201.243 167.46C199.586 167.484 198 140.896 199.655 136.498C201.557 131.445 196.56 125.054 192.796 121.773C186.029 115.874 171.006 128.541 155.731 122.803C155.326 122.651 155.407 122.668 150.583 120.744C135.74 114.822 134.96 114.651 134.11 114.566C126.915 113.854 118.133 119.742 114.548 126.921C110.82 134.384 113.935 140.784 110.429 158.838C110.021 160.943 109.379 163.942 108.37 163.986C106.525 164.067 104.724 154.212 104.252 151.631C102.275 140.818 100.369 130.392 104.252 118.685C104.675 117.408 107.286 112.668 112.489 103.241C119.984 89.6602 123.754 82.8442 124.844 81.6195C132.657 72.8329 146.879 64.8174 158.82 68.2349C164.855 69.9623 163.773 72.7394 171.175 75.442C184.366 80.2581 195.83 74.3682 197.944 78.5308C199.064 80.7357 195.93 82.5536 195.885 86.7675C195.807 93.9977 204.951 96.087 210.299 103.241C213.174 107.087 218.095 107.128 205.213 158.727Z" fill="#2F2E41"/>
<path d="M266.542 253.752C264.547 255.994 262.478 258.19 260.333 260.334C231.531 289.137 193.233 305 152.5 305C117.293 305 83.9094 293.15 56.9007 271.335C56.8835 271.324 56.872 271.312 56.855 271.295C53.2718 268.406 49.8033 265.333 46.4551 262.088C46.5181 261.584 46.5869 261.085 46.6614 260.592C47.1315 257.266 47.6533 254.096 48.238 251.178C53.0252 227.26 116.015 202.149 117.654 201.495C117.677 201.489 117.689 201.484 117.689 201.484C117.689 201.484 125.795 231.365 160.532 230.98C184.192 230.722 179.606 201.484 179.606 201.484C179.606 201.484 179.893 201.541 180.431 201.656C187.265 203.106 234.712 213.529 253.431 227.753C259.135 232.087 263.229 241.317 266.17 252.324C266.296 252.795 266.416 253.276 266.542 253.752Z" fill="#0066DB"/>
<path d="M260.334 44.6665C231.531 15.864 193.234 0 152.5 0C111.766 0 73.4695 15.864 44.6664 44.6665C15.8635 73.4697 0 111.767 0 152.5C0 189.679 13.2148 224.829 37.4313 252.583C39.7418 255.237 42.1554 257.822 44.6664 260.334C45.2569 260.924 45.8532 261.515 46.4552 262.088C49.8034 265.333 53.2719 268.406 56.8551 271.295C56.8722 271.313 56.8836 271.324 56.9008 271.336C83.9095 293.15 117.293 305 152.5 305C193.234 305 231.531 289.137 260.334 260.334C262.478 258.19 264.547 255.994 266.543 253.752C291.407 225.821 305 190.207 305 152.5C305 111.767 289.137 73.4697 260.334 44.6665ZM266.17 252.325C261.658 257.456 256.808 262.283 251.648 266.761C241.862 275.274 230.969 282.544 219.222 288.334C215.1 290.369 210.874 292.221 206.552 293.878C189.759 300.322 171.534 303.853 152.5 303.853C134.131 303.853 116.519 300.563 100.22 294.543C93.5294 292.078 87.0627 289.148 80.8537 285.794C79.9421 285.301 79.0363 284.803 78.1362 284.293C73.4007 281.609 68.8199 278.68 64.4227 275.515C58.1221 270.997 52.1825 266.004 46.6615 260.592C43.5657 257.559 40.6075 254.4 37.7811 251.115C14.9577 224.605 1.14662 190.138 1.14662 152.5C1.14662 69.0439 69.0435 1.14662 152.5 1.14662C235.957 1.14662 303.853 69.0439 303.853 152.5C303.853 190.717 289.618 225.666 266.17 252.325Z" fill="#3F3D56"/>
</g>
<defs>
<clipPath id="clip0_26_768">
<rect width="305" height="305" fill="white"/>
</clipPath>
</defs>
</svg>
